<svg width="1430" height="673" viewBox="0 0 1430 673" fill="none" xmlns="http://www.w3.org/2000/svg">
<path d="M108.798 211.5L217.051 274V399L108.798 461.5L0.544434 399V274L108.798 211.5Z" fill="#DEE9F6"/>
<path d="M957.51 1.49377L1065.76 63.9937V188.994L957.51 251.494L849.257 188.994V63.9937L957.51 1.49377Z" fill="#DEE9F6"/>
<path d="M472.529 671.5L364.276 609L364.276 484L472.529 421.5L580.783 484V608.997V609L472.529 671.5Z" fill="#DEE9F6"/>
<path d="M580.781 63.9999L472.529 1.50056L364.276 64.0005L364.275 188.994L472.528 251.494L580.781 188.994V188.992V63.9999Z" fill="#DEE9F6"/>
<path d="M1200 671.493L1091.74 608.993V483.993L1200 421.493L1308.25 483.993V608.993L1200 671.493Z" fill="#DEE9F6"/>
<path d="M702.026 274L593.773 211.5L485.519 274V399L593.773 461.5M364.276 189V64.0005M580.783 189V64.0005L580.781 63.9999M364.276 64.0005L472.529 1.50056L580.781 63.9999M364.276 64.0005L364.275 188.994M364.275 188.994L472.528 251.494L580.781 188.994V188.992M364.275 188.994V63.9939L472.528 1.4939L580.781 63.9939V63.9999M472.535 421.494L580.788 483.994V608.994L580.783 608.997M472.535 671.494L580.783 608.997M944.519 273.994L836.266 211.494L728.013 273.994V273.996M836.266 461.494L728.013 398.994V273.996M472.535 1.48848L580.788 63.9885V188.988L580.781 188.992M472.535 251.488L580.781 188.992M580.783 608.997V484L472.529 421.5L364.276 484L364.276 609L472.529 671.5L580.783 609V608.997ZM580.781 63.9999V188.992M1078.75 461.488L970.5 398.987V273.987M1187.01 273.987V398.985M1187.01 398.985V398.988M1187.01 398.985L1187.01 398.982L1187.01 273.982L1078.76 211.482L970.506 273.982M1187.01 398.985L1078.76 461.482M970.506 273.984V398.982M728.013 273.996L836.26 211.499L944.513 273.999V398.99M728.013 273.996L728.012 398.988L836.265 461.488L944.513 398.99M728.013 273.996L728.012 273.988L836.265 211.488L944.518 273.988V398.988L944.513 398.99M728.013 273.996L728.007 273.999V398.999L836.26 461.499L944.513 398.999V398.99M108.798 211.5L217.051 274V399L108.798 461.5L0.544434 399V274L108.798 211.5ZM230.041 421.5L338.295 484V609L230.041 671.5L121.788 609V484L230.041 421.5ZM715.017 671.5L606.763 609V484L715.017 421.5L823.27 484L823.27 609L715.017 671.5ZM485.518 398.994L593.771 461.494L702.025 398.994V273.994L593.771 211.494L485.518 273.994V398.994ZM485.525 398.994L593.778 461.494L702.032 398.994V273.994L593.778 211.494L485.525 273.994V398.994ZM715.023 671.494L606.769 608.994L606.769 483.994L715.023 421.494L823.276 483.994V608.994L715.023 671.494ZM970.5 398.993L1078.75 461.493L1187.01 398.993V273.993L1078.75 211.493L970.5 273.993V398.993ZM1200 671.493L1091.74 608.993V483.993L1200 421.493L1308.25 483.993V608.993L1200 671.493ZM849.257 188.994L957.51 251.494L1065.76 188.994V63.9937L957.51 1.49377L849.257 63.9937V188.994ZM485.525 398.988L593.778 461.488L702.031 398.988V273.988L593.778 211.488L485.525 273.988V398.988ZM1200 1.48145L1308.26 63.9815V188.981L1200 251.481L1091.75 188.981V63.9815L1200 1.48145ZM1321.25 461.481L1212.99 398.981V273.981L1321.25 211.481L1429.5 273.981V398.981L1321.25 461.481Z" stroke="#DEE9F6"/>
</svg>
