<svg width="1000" height="1000" viewBox="0 0 1000 1000" fill="none" xmlns="http://www.w3.org/2000/svg">
<g clip-path="url(#clip0_1037_142)">
<path fill-rule="evenodd" clip-rule="evenodd" d="M744.238 68.2159C747.811 68.2159 751.112 70.1219 752.898 73.2159L905.791 338.034C906.384 339.061 905.745 340.436 905.152 341.462L881.884 381.764C881.348 382.692 881.348 383.836 881.884 384.764L905.152 425.065C905.688 425.993 906.678 426.565 907.75 426.565L954.286 426.565C955.472 426.565 956.982 426.699 957.575 427.725L997.125 496.229C998.911 499.323 998.911 503.135 997.125 506.229L752.898 929.241C751.112 932.335 747.811 934.241 744.238 934.241L255.785 934.241C252.213 934.241 248.911 932.335 247.125 929.241L105.012 683.094C102.25 678.311 103.889 672.195 108.672 669.434L340.778 535.427C345.561 532.666 347.199 526.55 344.438 521.767L334.592 504.714C330.444 497.529 336.345 488.708 344.57 489.801L474.134 507.016C480.643 507.881 484.566 514.676 482.061 520.745L432.187 641.559C429.021 649.228 418.432 649.928 414.284 642.743L404.438 625.69C401.677 620.907 395.561 619.268 390.778 622.03L245.274 706.036C240.492 708.798 238.853 714.914 241.614 719.696L304.86 829.241C306.646 832.335 309.948 834.241 313.52 834.241L686.503 834.241C690.076 834.241 693.377 832.335 695.163 829.241L881.655 506.229C883.441 503.135 883.441 499.323 881.655 496.229L774.63 310.857C774.499 310.629 774.525 310.346 774.657 310.118L792.925 278.477C793.461 277.549 793.461 276.405 792.925 275.477L774.657 243.836C774.121 242.908 773.131 242.336 772.059 242.336L735.523 242.336C735.26 242.336 735.002 242.218 734.87 241.99L695.163 173.216C693.377 170.122 690.076 168.216 686.503 168.216L313.52 168.216C309.947 168.216 306.646 170.122 304.86 173.216L191.877 368.908C186.761 377.769 196.677 387.684 205.537 382.569L397.528 271.722C402.311 268.961 403.95 262.845 401.189 258.062L391.343 241.009C387.194 233.824 393.096 225.003 401.32 226.096L530.885 243.311C537.393 244.176 541.316 250.971 538.811 257.04L488.938 377.854C485.772 385.523 475.183 386.224 471.034 379.038L461.235 362.066C458.474 357.283 452.359 355.644 447.576 358.404L58.6713 582.834C53.8885 585.594 47.7738 583.955 45.0128 579.173L2.89849 506.229C1.11216 503.135 1.11213 499.323 2.8985 496.229L247.125 73.2159C248.911 70.1219 252.212 68.2159 255.785 68.2159L744.238 68.2159ZM842.736 262.913C842.2 261.985 841.21 261.413 840.138 261.413L818.602 261.413C817.53 261.413 816.54 261.985 816.004 262.913L805.236 281.564C804.7 282.492 804.7 283.636 805.236 284.564L816.004 303.214C816.54 304.143 817.53 304.714 818.602 304.714L840.138 304.714C841.21 304.714 842.2 304.143 842.736 303.214L853.504 284.564C854.04 283.636 854.04 282.492 853.504 281.564L842.736 262.913ZM896.515 441.764C897.587 441.764 898.578 442.336 899.113 443.264L904.881 453.255C905.417 454.183 905.417 455.327 904.881 456.255L899.113 466.245C898.578 467.173 897.587 467.745 896.515 467.745L884.979 467.745C883.908 467.745 882.917 467.173 882.381 466.245L876.613 456.255C876.078 455.327 876.078 454.183 876.613 453.255L882.381 443.264C882.917 442.336 883.908 441.764 884.979 441.764L896.515 441.764ZM771.271 154.972C770.736 154.044 769.745 153.472 768.673 153.472L757.137 153.472C756.066 153.472 755.075 154.044 754.539 154.972L748.771 164.963C748.236 165.891 748.236 167.035 748.771 167.963L754.539 177.953C755.075 178.881 756.066 179.453 757.137 179.453L768.673 179.453C769.745 179.453 770.736 178.881 771.271 177.953L777.039 167.963C777.575 167.035 777.575 165.891 777.039 164.963L771.271 154.972Z" fill="#414149"/>
<path d="M891.578 179.049C893.364 182.143 893.364 185.955 891.578 189.049L884.852 200.699C883.065 203.793 879.764 205.699 876.191 205.699L862.738 205.699C859.166 205.699 855.864 203.793 854.078 200.699L847.352 189.049C845.565 185.955 845.565 182.143 847.352 179.049L854.078 167.398C855.864 164.304 859.166 162.398 862.738 162.398L876.191 162.398C879.764 162.398 883.065 164.304 884.852 167.398L891.578 179.049Z" fill="#414149"/>
<path d="M666.403 527.335C669.976 527.335 673.277 529.241 675.064 532.335L681.79 543.986C683.577 547.08 683.577 550.892 681.79 553.986L675.064 565.636C673.277 568.73 669.976 570.636 666.403 570.636L652.951 570.636C649.378 570.636 646.077 568.73 644.29 565.636L637.564 553.986C635.777 550.892 635.777 547.08 637.564 543.986L644.29 532.335C646.077 529.241 649.378 527.335 652.951 527.335L666.403 527.335Z" fill="#414149"/>
<path d="M570.403 386.058C573.975 386.058 577.277 387.964 579.063 391.058L598.29 424.359C600.076 427.453 600.076 431.265 598.29 434.359L579.063 467.66C577.277 470.754 573.975 472.66 570.403 472.66L531.95 472.66C528.377 472.66 525.076 470.754 523.29 467.66L504.063 434.359C502.277 431.265 502.277 427.453 504.063 424.359L523.29 391.058C525.076 387.964 528.377 386.058 531.95 386.058L570.403 386.058Z" fill="#414149"/>
<path d="M648.819 338.878C652.391 338.878 655.692 340.784 657.479 343.878L664.205 355.529C665.992 358.623 665.992 362.435 664.205 365.529L657.479 377.18C655.692 380.274 652.391 382.18 648.819 382.18L635.366 382.18C631.793 382.18 628.492 380.274 626.705 377.18L619.979 365.529C618.192 362.435 618.192 358.623 619.979 355.529L626.705 343.878C628.492 340.784 631.793 338.878 635.366 338.878L648.819 338.878Z" fill="#414149"/>
<path d="M765.97 491.789C769.543 491.789 772.844 493.695 774.63 496.789L781.357 508.44C783.143 511.534 783.143 515.346 781.357 518.44L774.63 530.09C772.844 533.184 769.543 535.09 765.97 535.09L752.517 535.09C748.944 535.09 745.643 533.184 743.857 530.09L737.13 518.44C735.344 515.346 735.344 511.534 737.13 508.44L743.857 496.789C745.643 493.695 748.944 491.789 752.517 491.789L765.97 491.789Z" fill="#414149"/>
<path d="M1000.6 317.185C1002.39 320.279 1002.39 324.091 1000.6 327.185L986.376 351.826C984.59 354.92 981.288 356.826 977.716 356.826L949.263 356.826C945.69 356.826 942.389 354.92 940.603 351.826L926.376 327.185C924.59 324.091 924.59 320.279 926.376 317.185L940.603 292.544C942.389 289.45 945.69 287.544 949.263 287.544L977.716 287.544C981.288 287.544 984.59 289.45 986.376 292.544L1000.6 317.185Z" fill="#414149"/>
<path d="M568.951 523.543C572.524 523.543 575.825 525.449 577.612 528.543L591.838 553.184C593.625 556.278 593.625 560.09 591.838 563.184L577.612 587.825C575.825 590.92 572.524 592.825 568.952 592.825L540.499 592.825C536.926 592.825 533.625 590.919 531.838 587.825L517.612 563.184C515.825 560.09 515.825 556.278 517.612 553.184L531.838 528.543C533.625 525.449 536.926 523.543 540.499 523.543L568.951 523.543Z" fill="#414149"/>
<path d="M609.924 198.511C613.497 198.511 616.798 200.417 618.584 203.511L632.811 228.152C634.597 231.246 634.597 235.058 632.811 238.152L618.584 262.793C616.798 265.887 613.497 267.793 609.924 267.793L581.471 267.793C577.899 267.793 574.597 265.887 572.811 262.793L558.584 238.152C556.798 235.058 556.798 231.246 558.584 228.152L572.811 203.511C574.597 200.417 577.899 198.511 581.471 198.511L609.924 198.511Z" fill="#414149"/>
<path d="M764.493 370.232C768.066 370.232 771.367 372.138 773.154 375.232L787.38 399.873C789.167 402.967 789.167 406.779 787.38 409.873L773.154 434.514C771.367 437.608 768.066 439.514 764.493 439.514L736.04 439.514C732.468 439.514 729.167 437.608 727.38 434.514L713.154 409.873C711.367 406.779 711.367 402.967 713.154 399.873L727.38 375.232C729.167 372.138 732.468 370.232 736.04 370.232L764.493 370.232Z" fill="#414149"/>
<path d="M733.58 586.689C737.153 586.689 740.454 588.595 742.241 591.689L756.467 616.33C758.253 619.424 758.253 623.236 756.467 626.33L742.241 650.971C740.454 654.065 737.153 655.971 733.58 655.971L705.127 655.971C701.555 655.971 698.253 654.065 696.467 650.971L682.241 626.33C680.454 623.236 680.454 619.424 682.241 616.33L696.467 591.689C698.253 588.595 701.555 586.689 705.127 586.689L733.58 586.689Z" fill="#414149"/>
<path d="M565.224 302.087C568.796 302.087 572.098 303.993 573.884 307.087L575.61 310.077C577.397 313.171 577.397 316.983 575.61 320.077L573.884 323.068C572.098 326.162 568.796 328.068 565.224 328.068L561.771 328.068C558.198 328.068 554.897 326.162 553.11 323.068L551.384 320.077C549.598 316.983 549.598 313.171 551.384 310.077L553.11 307.087C554.897 303.993 558.198 302.087 561.771 302.087L565.224 302.087Z" fill="#414149"/>
<path d="M654.956 453.508C658.529 453.508 661.83 455.414 663.616 458.508L665.343 461.498C667.129 464.592 667.129 468.404 665.343 471.498L663.616 474.489C661.83 477.583 658.529 479.489 654.956 479.489L651.503 479.489C647.93 479.489 644.629 477.583 642.843 474.489L641.116 471.498C639.33 468.404 639.33 464.592 641.116 461.498L642.843 458.508C644.629 455.414 647.93 453.508 651.503 453.508L654.956 453.508Z" fill="#414149"/>
<path d="M694.904 260.702C698.477 260.702 701.778 262.608 703.565 265.702L705.291 268.692C707.077 271.786 707.077 275.598 705.291 278.692L703.565 281.682C701.778 284.776 698.477 286.682 694.904 286.682L691.451 286.682C687.879 286.682 684.577 284.776 682.791 281.682L681.065 278.692C679.278 275.598 679.278 271.786 681.065 268.692L682.791 265.702C684.577 262.608 687.879 260.702 691.451 260.702L694.904 260.702Z" fill="#414149"/>
<path d="M428.571 421.397C432.144 421.397 435.445 423.303 437.232 426.397L438.958 429.388C440.744 432.482 440.744 436.294 438.958 439.388L437.232 442.378C435.445 445.472 432.144 447.378 428.571 447.378L425.118 447.378C421.546 447.378 418.244 445.472 416.458 442.378L414.732 439.388C412.945 436.294 412.945 432.482 414.732 429.388L416.458 426.397C418.244 423.303 421.546 421.397 425.118 421.397L428.571 421.397Z" fill="#414149"/>
</g>
<defs>
<clipPath id="clip0_1037_142">
<rect width="1000" height="1000" fill="white"/>
</clipPath>
</defs>
</svg>
